<?xml version="1.0" standalone="no"?>
<!DOCTYPE svg PUBLIC "-//W3C//DTD SVG 20010904//EN"
 "http://www.w3.org/TR/2001/REC-SVG-20010904/DTD/svg10.dtd">
<svg version="1.0" xmlns="http://www.w3.org/2000/svg"
 width="512.000000pt" height="512.000000pt" viewBox="0 0 512.000000 512.000000"
 preserveAspectRatio="xMidYMid meet">
<metadata>
Created by potrace 1.11, written by Peter Selinger 2001-2013
</metadata>
<g transform="translate(0.000000,512.000000) scale(0.100000,-0.100000)"
fill="#000000" stroke="none">
<path d="M2300 4030 c-228 -31 -448 -111 -615 -223 -149 -100 -300 -290 -366
-462 -125 -322 -109 -824 37 -1207 69 -180 197 -406 307 -543 148 -183 348
-348 528 -435 128 -62 241 -84 407 -78 120 4 148 9 232 37 167 56 360 189 526
364 271 284 447 646 510 1052 21 133 23 398 5 535 -68 499 -391 823 -936 940
-82 18 -141 22 -335 25 -129 2 -264 0 -300 -5z m565 -131 c377 -62 653 -245
793 -525 140 -278 146 -742 15 -1134 -115 -347 -335 -654 -612 -859 -114 -84
-159 -109 -254 -142 -222 -76 -453 -49 -653 77 -528 331 -851 997 -795 1637
16 179 48 308 107 424 184 367 616 568 1169 546 66 -3 170 -13 230 -24z"/>
<path d="M1892 2764 c-15 -10 -22 -25 -22 -46 0 -27 22 -54 168 -200 92 -93
177 -171 190 -175 33 -8 72 22 72 55 0 22 -34 61 -178 205 -97 97 -184 177
-192 177 -9 0 -26 -7 -38 -16z"/>
<path d="M2997 2602 c-141 -141 -177 -183 -177 -204 0 -29 32 -58 64 -58 12 0
87 68 193 173 152 151 173 176 173 204 0 33 -29 63 -60 63 -8 0 -95 -80 -193
-178z"/>
<path d="M2360 1808 c-41 -44 -14 -88 69 -112 114 -33 305 -10 338 40 20 30
11 67 -21 83 -20 11 -32 11 -76 -4 -64 -21 -160 -21 -219 -1 -57 21 -66 20
-91 -6z"/>
</g>
</svg>
